<svg width="2942" height="2499" viewBox="0 0 2942 2499"  xmlns="http://www.w3.org/2000/svg">
<path fill-rule="evenodd" clip-rule="evenodd" d="M1621.3 371.912C1651.35 384.641 1680.41 398.73 1708.43 414.078L1323.91 620.482C1248.52 660.951 1220.21 754.874 1260.68 830.265C1301.15 905.656 1395.07 933.967 1470.46 893.498L1970.07 625.313C2054.73 723.19 2118.18 836.999 2157.27 958.988L1527.01 1297.3C1451.62 1337.77 1423.31 1431.7 1463.78 1507.09C1504.25 1582.48 1598.17 1610.79 1673.56 1570.32L2202.13 1286.59C2197.78 1398.63 2173.44 1511.78 2127.12 1621.14C1921.83 2105.78 1362.53 2332.24 877.89 2126.96C393.248 1921.67 166.786 1362.37 372.073 877.728C577.361 393.086 1136.66 166.625 1621.3 371.912Z"/>
<rect x="2819.8" y="628.452" width="256.921" height="1026.48" rx="128.46" transform="rotate(61.7738 2819.8 628.452)" />
<rect x="2292.34" y="122.087" width="256.921" height="1026.48" rx="128.46" transform="rotate(61.7738 2292.34 122.087)" />
</svg>
