<svg width="590" height="590" viewBox="0 0 590 590" fill="none" xmlns="http://www.w3.org/2000/svg">
<path d="M475.063 61.3467C276.597 87.0549 280.878 183.305 293.384 282.416C424.737 176.172 487.203 195.645 589.976 291.47C588.877 204.388 549.4 118.634 475.063 61.3467Z" fill="#E7043C"/>
<path d="M61.3467 114.937C-38.0992 243.98 -14.1059 429.207 114.937 528.653C330.188 500.771 306.948 389.91 293.384 282.416C280.878 183.305 276.597 87.0549 475.063 61.3467C346.019 -38.0992 160.793 -14.1059 61.3467 114.937Z" fill="#E7043C"/>
<path d="M114.937 528.653C243.98 628.099 429.207 604.106 528.653 475.063C570.812 420.357 590.786 355.554 589.976 291.47C487.203 195.645 424.737 176.172 293.384 282.416C306.948 389.91 330.188 500.771 114.937 528.653Z" fill="#E7043C"/>
<path fill-rule="evenodd" clip-rule="evenodd" d="M475.063 61.3467C465.882 54.272 456.418 47.822 446.72 41.9901C320.099 -34.1537 153.718 -4.92557 61.3467 114.937C-38.0992 243.98 -14.1059 429.207 114.937 528.653C124.117 535.727 133.581 542.177 143.278 548.009C269.899 624.154 436.282 594.926 528.653 475.063C570.812 420.357 590.786 355.554 589.976 291.47C589.834 280.189 589.047 268.929 587.624 257.751C578.063 182.647 539.77 111.213 475.063 61.3467ZM529.665 213.967C514.403 169.621 486.427 129.139 446.52 98.3845C443.422 95.9969 440.285 93.6939 437.113 91.4752C370.009 105.964 339.722 130.353 325.516 155.764C312.723 178.648 310.39 206.195 312.44 238.582C364.365 201.921 409.411 184.298 454.249 187.861C480.632 189.957 505.296 199.306 529.665 213.967ZM318.256 292.519C321.167 314.959 324.226 338.748 324.865 361.668C325.635 389.332 323.022 417.989 311.408 444.709C295.393 481.556 264.528 510.19 213.474 529.527C311.622 563.66 424.698 533.354 491.615 446.52C527.12 400.449 543.901 345.994 543.22 292.061C543.174 288.374 543.046 284.691 542.836 281.013C507.162 251.592 478.863 236.723 450.545 234.474C416.95 231.805 377.228 246.587 318.256 292.519ZM152.892 498.528C226.627 482.621 256.064 454.736 268.524 426.07C276.311 408.152 278.798 387.196 278.123 362.97C277.548 342.358 274.788 321.012 271.847 298.276C271.296 294.015 270.738 289.706 270.188 285.343C264.075 236.899 258.228 180.3 284.701 132.946C302.08 101.862 331.492 77.5193 376.51 60.4673C278.366 26.3431 165.298 56.6512 98.3845 143.48C14.7023 252.068 34.8924 407.933 143.48 491.616C146.58 494.004 149.718 496.308 152.892 498.528Z" fill="black"/>
</svg>
