<svg width="50" height="50" viewBox="0 0 50 50" fill="none" xmlns="http://www.w3.org/2000/svg">
<rect width="50" height="50" transform="matrix(-1 0 0 1 50 0)" fill="white" fill-opacity="0.3"/>
<path fill-rule="evenodd" clip-rule="evenodd" d="M32.3676 5.39499L14.2601 23.535C14.0971 23.6907 13.9678 23.8782 13.8801 24.0859C13.7923 24.2936 13.7481 24.5171 13.7501 24.7425C13.7495 25.2077 13.9328 25.6544 14.2601 25.985C20.8101 32.375 27.1226 38.5425 33.1976 44.4875C33.5101 44.78 34.7601 45.5075 35.7251 44.4275C36.6901 43.345 36.1051 42.4025 35.7251 42.0125L18.0551 24.7425L34.9226 7.84499C35.5376 6.99749 35.4876 6.21499 34.7726 5.49749C34.0576 4.77999 33.2551 4.74499 32.3676 5.39499Z" fill="black"/>
</svg>
