<svg width="50" height="50" viewBox="0 0 50 50" fill="none" xmlns="http://www.w3.org/2000/svg">
<rect width="50" height="50" fill="white" fill-opacity="0.3"/>
<path fill-rule="evenodd" clip-rule="evenodd" d="M17.6324 5.39499L35.7399 23.535C35.9029 23.6907 36.0322 23.8782 36.1199 24.0859C36.2077 24.2936 36.2519 24.5171 36.2499 24.7425C36.2505 25.2077 36.0672 25.6544 35.7399 25.985C29.1899 32.375 22.8774 38.5425 16.8024 44.4875C16.4899 44.78 15.2399 45.5075 14.2749 44.4275C13.3099 43.345 13.8949 42.4025 14.2749 42.0125L31.9449 24.7425L15.0774 7.84499C14.4624 6.99749 14.5124 6.21499 15.2274 5.49749C15.9424 4.77999 16.7449 4.74499 17.6324 5.39499Z" fill="black"/>
</svg>
